#define close_pressed_width 11
#define close_pressed_height 11
static unsigned char close_pressed_bits[] = {
   0x70, 0x00, 0x8c, 0x01, 0x02, 0x02, 0x8a, 0x02, 0x51, 0x04, 0x21, 0x04,
   0x51, 0x04, 0x8a, 0x02, 0x02, 0x02, 0x8c, 0x01, 0x70, 0x00 };
