#define iconify_pressed_width 11
#define iconify_pressed_height 11
static unsigned char iconify_pressed_bits[] = {
   0x70, 0x00, 0x8c, 0x01, 0x02, 0x02, 0x02, 0x02, 0x01, 0x04, 0xfd, 0x05,
   0x01, 0x04, 0x02, 0x02, 0x02, 0x02, 0x8c, 0x01, 0x70, 0x00 };
