#define max_pressed_width 11
#define max_pressed_height 11
static unsigned char max_pressed_bits[] = {
   0x70, 0x00, 0x8c, 0x01, 0x02, 0x02, 0xe2, 0x02, 0x81, 0x04, 0x89, 0x04,
   0x09, 0x04, 0x3a, 0x02, 0x02, 0x02, 0x8c, 0x01, 0x70, 0x00 };
